<svg xmlns="http://www.w3.org/2000/svg" width="132.683" height="95.15" viewBox="0 0 132.683 95.15">
  <g id="difflogo" transform="translate(-22.783 -32.85)">
    <path id="Path_9" data-name="Path 9" d="M93.35,81.734H38.126a5.843,5.843,0,0,1-5.032-8.774L60.707,26.2a5.809,5.809,0,0,1,10,0L98.32,72.959a5.8,5.8,0,0,1-4.97,8.775Z" transform="translate(-7.947 18.383)" fill="none" stroke="#171a3a" stroke-width="3" stroke-dasharray="4 4"/>
    <path id="Path_5" data-name="Path 5" d="M113.368,100.875H40.039a7.758,7.758,0,0,1-6.681-11.651L70.022,27.139a7.714,7.714,0,0,1,13.281,0l36.664,62.085a7.7,7.7,0,0,1-6.6,11.651Z" transform="translate(-0.907 13.812)" fill="#00c9d8"/>
    <path id="Path_6" data-name="Path 6" d="M146,128H56a9.522,9.522,0,0,1-8.2-14.3l45-76.2a9.467,9.467,0,0,1,16.3,0l45,76.2A9.416,9.416,0,0,1,146,128Z" fill="#4648b0"/>
    <path id="Path_8" data-name="Path 8" d="M146,128H68.526l55.16-65.8L154.1,113.7A9.416,9.416,0,0,1,146,128Z" fill="#aa5cad"/>
    <path id="Path_7" data-name="Path 7" d="M146,128H96.211l46.248-34.013L154.1,113.7A9.416,9.416,0,0,1,146,128Z" fill="#e34fb6"/>
  </g>
</svg>
